<svg width="12" height="12" viewBox="0 0 12 12" fill="none" xmlns="http://www.w3.org/2000/svg">
<g clip-path="url(#clip0_48_25)">
<path d="M2.99219 2.66406C4.30901 1.34684 6.24833 1.01525 7.86816 1.68262C8.22642 1.81585 8.53858 2.00536 8.78223 2.18164L7.42969 2.80664C6.17039 2.27791 4.72819 2.63808 3.84766 3.51953C2.69391 4.67365 2.43156 6.64852 3.68555 7.98438L3.81055 8.1123L0 11.5205C0.241626 11.1874 0.541856 10.8723 0.84082 10.5576C1.68457 9.66978 2.5217 8.78946 2.01074 7.5459C1.32705 5.88212 1.72568 3.93208 2.99219 2.66406ZM11.9111 0.124023C10.6568 1.85353 10.0446 2.69943 10.5361 4.81543L10.5322 4.8125C10.8711 6.25276 10.5091 7.84973 9.33887 9.02148C7.86332 10.4998 5.50214 10.8287 3.55762 9.49805L4.91309 8.87012C6.15395 9.35802 7.51152 9.14362 8.4873 8.16699C9.46306 7.19009 9.68264 5.76702 9.19238 4.58301C9.09918 4.35848 8.81961 4.30175 8.62402 4.44629L4.63379 7.39551L10.3496 1.64746V1.65234L12 0C11.9703 0.0419949 11.9408 0.0830524 11.9111 0.124023Z" fill="#B5B5B5"/>
</g>
<defs>
<clipPath id="clip0_48_25">
<rect width="12" height="12" fill="white"/>
</clipPath>
</defs>
</svg>
