<svg width="16" height="16" viewBox="0 0 16 16" fill="none" xmlns="http://www.w3.org/2000/svg">
<g clip-path="url(#clip0_1011_352)">
<path d="M6.81994 11.522C4.84327 11.282 3.4506 9.86002 3.4506 8.01802C3.4506 7.26935 3.71994 6.46068 4.16927 5.92202C3.9746 5.42802 4.0046 4.37935 4.22927 3.94535C4.82794 3.87068 5.6366 4.18535 6.11594 4.61868C6.6846 4.43935 7.28394 4.34935 8.01794 4.34935C8.75127 4.34935 9.3506 4.43935 9.88927 4.60402C10.3533 4.18468 11.1773 3.87068 11.7759 3.94535C11.9859 4.34935 12.0159 5.39802 11.8206 5.90668C12.3006 6.47602 12.5546 7.24002 12.5546 8.01802C12.5546 9.86002 11.1619 11.2527 9.15594 11.5073C9.6646 11.8367 10.0093 12.5553 10.0093 13.3787V14.936C10.0093 15.3853 10.3833 15.64 10.8326 15.46C13.5433 14.4267 15.6693 11.7167 15.6693 8.36268C15.6693 4.12468 12.2253 0.666016 7.98794 0.666016C3.74927 0.666016 0.335938 4.12468 0.335938 8.36268C0.335938 11.6867 2.44727 14.4427 5.2926 15.4753C5.6966 15.6253 6.08594 15.3553 6.08594 14.9513V13.7527C5.85812 13.8479 5.61416 13.8986 5.36727 13.902C4.3786 13.902 3.7946 13.3633 3.37594 12.36C3.21127 11.9553 3.03127 11.716 2.6866 11.6713C2.5066 11.656 2.44727 11.5813 2.44727 11.4913C2.44727 11.3113 2.74727 11.1773 3.04594 11.1773C3.4806 11.1773 3.8546 11.4467 4.24394 12.0007C4.54394 12.4347 4.85794 12.6293 5.2326 12.6293C5.6066 12.6293 5.84594 12.4947 6.1906 12.15C6.44527 11.896 6.63994 11.672 6.81994 11.522Z" fill="black"/>
</g>
<defs>
<clipPath id="clip0_1011_352">
<rect width="16" height="16" fill="white"/>
</clipPath>
</defs>
</svg>
